<?xml version="1.0" encoding="UTF-8" standalone="no"?><!DOCTYPE svg PUBLIC "-//W3C//DTD SVG 1.1//EN" "http://www.w3.org/Graphics/SVG/1.1/DTD/svg11.dtd"><svg width="100%" height="100%" viewBox="0 0 5000 4142" version="1.1" xmlns="http://www.w3.org/2000/svg" xmlns:xlink="http://www.w3.org/1999/xlink" xml:space="preserve" xmlns:serif="http://www.serif.com/" shape-rendering="crispEdges" style="fill-rule:evenodd;clip-rule:evenodd;stroke-linecap:round;stroke-linejoin:round;stroke-miterlimit:1.5;"><rect x="0" y="-4.167" width="833.333" height="833.333" style="fill:#86001E;stroke:#86001E;stroke-opacity:0;stroke-width:4.17px;"/><rect x="0" y="825" width="833.333" height="833.333" style="fill:#86001E;"/><rect x="0" y="1650" width="833.333" height="833.333" style="fill:#86001E;"/><rect x="0" y="2479.17" width="833.333" height="833.333" style="fill:#86001E;"/><rect x="0" y="3308.33" width="833.333" height="833.333" style="fill:#86001E;"/><rect x="829.167" y="-4.167" width="833.333" height="833.333" style="fill:#86001E;fill-opacity:0.8;stroke:#86001E;stroke-opacity:0;stroke-width:4.17px;"/><rect x="1658.33" y="-4.167" width="833.333" height="833.333" style="fill:#86001E;"/><rect x="2487.5" y="-4.167" width="833.333" height="833.333" style="fill:#86001E;fill-opacity:0.8;"/><rect x="2487.5" y="1650" width="833.333" height="833.333" style="fill:#86001E;fill-opacity:0.8;"/><rect x="829.167" y="820.833" width="833.333" height="833.333" style="fill:#86001E;stroke:#86001E;stroke-opacity:0;stroke-width:4.17px;"/><path d="M4150,829.167c460.289,-0 833.333,-373.045 833.333,-833.334l-833.333,0l0,833.334Z" style="fill:#86001E;fill-opacity:0.8;fill-rule:nonzero;stroke:#000;stroke-opacity:0;stroke-width:4.17px;stroke-linecap:butt;stroke-miterlimit:2;"/><path d="M1658.33,3312.5c460.289,0 833.334,-373.044 833.334,-833.333l-833.334,-0l0,833.333Z" style="fill:#86001E;fill-opacity:0.8;fill-rule:nonzero;stroke:#000;stroke-opacity:0;stroke-width:4.17px;stroke-linecap:butt;stroke-miterlimit:2;"/><rect x="829.167" y="1650" width="833.333" height="833.333" style="fill:#86001E;fill-opacity:0.8;"/><rect x="1658.33" y="820.833" width="833.333" height="833.333" style="fill:#86001E;fill-opacity:0.8;"/><rect x="829.167" y="2479.17" width="833.333" height="833.333" style="fill:#86001E;stroke:#86001E;stroke-opacity:0;stroke-width:4.17px;"/><rect x="829.167" y="3308.33" width="833.333" height="833.333" style="fill:#86001E;fill-opacity:0.8;"/><rect x="3320.83" y="-4.167" width="833.333" height="833.333" style="fill:#86001E;fill-opacity:0.6;"/><rect x="1658.33" y="1650" width="833.333" height="833.333" style="fill:#86001E;fill-opacity:0.6;"/><rect x="2487.5" y="820.833" width="833.333" height="833.333" style="fill:#86001E;fill-opacity:0.4;"/><rect x="3320.83" y="820.833" width="833.333" height="833.333" style="fill:#86001E;fill-opacity:0.8;"/></svg>